<svg width="40" height="40" fill="none" xmlns="http://www.w3.org/2000/svg"><path d="M28.762 10.48c.675 0 1.363.05 2.027.098.646.046 1.313.094 1.949.094.236 0 .453-.006.663-.02h.01a.192.192 0 01.16.3c-.415.609-.372 2-.327 3.473.061 1.967.124 4-.815 4.972-.353.365-.827.55-1.408.55-.56 0-.894-.902-1.28-1.947-.349-.94-.781-2.11-1.292-2.11-1.72 0-2.335 3.03-.92 5.532l3.084 5.28a1.16 1.16 0 01-.412 1.583 1.148 1.148 0 01-1.463-.25l-4.543-4.867c-1.62-.329-3.148-.496-4.545-.496-1.574 0-3.324.21-5.204.625l-4.436 4.738a1.15 1.15 0 01-1.62.138 1.155 1.155 0 01-.254-1.471l2.91-4.984c.215-2.797-.036-3.707-.284-3.976-.075-.08-.142-.09-.186-.09a.9.9 0 00-.668.295c-.7.719-.852 2.596-.831 3.611a.192.192 0 01-.19.221h-.014c-.195-.014-.381-.021-.562-.029-.768-.032-1.375-.057-1.7-.47-.223-.287-.27-.712-.144-1.34l.02-.12c.072-.456.222-1.405.743-2.248.655-1.058 1.666-1.596 3.003-1.596.108 0 .217.003.329.01.436.027.79.219 1.101.387.293.159.57.31.877.31.144 0 .29-.033.443-.099 1.069-.454 2.279-.674 3.7-.674.581 0 1.207.036 1.913.111.207.022.408.034.596.034 1.81 0 2.54-1.027 3.388-2.216.652-.915 1.39-1.952 2.727-2.642.948-.49 2.045-.718 3.455-.718v.001zm0-1.48c-1.653 0-2.965.28-4.13.88-1.655.856-2.54 2.1-3.251 3.098-.846 1.186-1.189 1.596-2.188 1.597a4.2 4.2 0 01-.441-.025 19.45 19.45 0 00-2.07-.12c-1.564 0-2.92.24-4.14.736l-.177-.094c-.381-.206-.953-.515-1.711-.563a6.688 6.688 0 00-.42-.013c-1.856 0-3.328.794-4.257 2.296-.676 1.095-.866 2.286-.946 2.795l-.01.06-.005.03c-.083.42-.294 1.582.437 2.516.744.95 1.883.997 2.798 1.035l.2.008-1.587 2.717a2.634 2.634 0 002.266 3.97c.759 0 1.476-.327 1.975-.898l4.1-4.378c1.607-.33 3.1-.496 4.446-.496 1.167 0 2.442.127 3.795.378l4.196 4.495a2.62 2.62 0 003.305.536 2.644 2.644 0 00.938-3.607l-3.079-5.27c-.533-.947-.634-1.863-.57-2.499l.123.33c.504 1.365 1.076 2.912 2.662 2.912.981 0 1.834-.346 2.466-1 1.373-1.421 1.3-3.772 1.23-6.046-.025-.84-.069-2.235.09-2.62a1.686 1.686 0 00.056-1.738 1.666 1.666 0 00-1.554-.847 9.227 9.227 0 01-.571.017c-.578 0-1.212-.045-1.826-.09C30.241 9.054 29.498 9 28.763 9" fill="#48494D" opacity=".5"/></svg>