<svg xmlns="http://www.w3.org/2000/svg" xmlns:xlink="http://www.w3.org/1999/xlink"><symbol id="arrow-icon"><path d="M18.987 6.172L13.075.369m5.912 5.803L13.3 11.969m5.687-5.797l-18.972.18" stroke="#48494D"/></symbol><symbol id="engine-icon"><g opacity=".5"><rect x="16.746" y="10.75" width="10.95" height="19.913" rx="1.25" stroke="#48494D" stroke-width="1.5"/><mask id="a" fill="#fff"><rect x="18.097" y="13.097" width="8.258" height="7.226" rx="1"/></mask><rect x="18.097" y="13.097" width="8.258" height="7.226" rx="1" stroke="#48494D" stroke-width="3" mask="url(#a)"/><path d="M27.947 20.834v0c1.184 0 2.143.96 2.143 2.142v2.664c0 1.345.535 3.49 2.499 3.267 1.964-.222 2.32-2.225 2.32-3.652s-.713-4.613-.535-7.304c.179-2.691 1.785-4.998 3.035-5.96" stroke="#48494D" stroke-width="1.5" stroke-linecap="round" stroke-linejoin="round"/><rect x="15.498" y="30.506" width="13.445" height=".996" rx=".498" fill="#48494D" stroke="#48494D" stroke-width=".996"/><path d="M35.418 15.478v0a1.893 1.893 0 011.435 2.022l-.085.874a1.756 1.756 0 01-1.748 1.586v0" stroke="#48494D" stroke-width="1.5"/></g></symbol><symbol id="location-icon"><path d="M28.314 29.284L17 41 5.686 29.284a16.759 16.759 0 01-4.379-8.483 17.12 17.12 0 01.911-9.573C3.429 8.201 5.48 5.613 8.11 3.792A15.612 15.612 0 0117 1c3.165 0 6.258.972 8.89 2.792 2.63 1.82 4.681 4.409 5.892 7.436a17.117 17.117 0 01.91 9.573 16.76 16.76 0 01-4.378 8.483zM17 21.25c.943 0 1.847-.388 2.514-1.078a3.75 3.75 0 001.041-2.604 3.75 3.75 0 00-1.04-2.603A3.495 3.495 0 0017 13.886c-.943 0-1.847.388-2.514 1.079a3.75 3.75 0 00-1.042 2.603 3.75 3.75 0 001.042 2.604A3.494 3.494 0 0017 21.25z" fill="#D12136" stroke="#F6F7FF" stroke-width=".5"/></symbol><symbol id="power-icon"><path d="M28.762 10.48c.675 0 1.363.05 2.027.098.646.046 1.313.094 1.949.094.236 0 .453-.006.663-.02h.01a.192.192 0 01.16.3c-.415.609-.372 2-.327 3.473.061 1.967.124 4-.815 4.972-.353.365-.827.55-1.408.55-.56 0-.894-.902-1.28-1.947-.349-.94-.781-2.11-1.292-2.11-1.72 0-2.335 3.03-.92 5.532l3.084 5.28a1.16 1.16 0 01-.412 1.583 1.148 1.148 0 01-1.463-.25l-4.543-4.867c-1.62-.329-3.148-.496-4.545-.496-1.574 0-3.324.21-5.204.625l-4.436 4.738a1.15 1.15 0 01-1.62.138 1.155 1.155 0 01-.254-1.471l2.91-4.984c.215-2.797-.036-3.707-.284-3.976-.075-.08-.142-.09-.186-.09a.9.9 0 00-.668.295c-.7.719-.852 2.596-.831 3.611a.192.192 0 01-.19.221h-.014c-.195-.014-.381-.021-.562-.029-.768-.032-1.375-.057-1.7-.47-.223-.287-.27-.712-.144-1.34l.02-.12c.072-.456.222-1.405.743-2.248.655-1.058 1.666-1.596 3.003-1.596.108 0 .217.003.329.01.436.027.79.219 1.101.387.293.159.57.31.877.31.144 0 .29-.033.443-.099 1.069-.454 2.279-.674 3.7-.674.581 0 1.207.036 1.913.111.207.022.408.034.596.034 1.81 0 2.54-1.027 3.388-2.216.652-.915 1.39-1.952 2.727-2.642.948-.49 2.045-.718 3.455-.718v.001zm0-1.48c-1.653 0-2.965.28-4.13.88-1.655.856-2.54 2.1-3.251 3.098-.846 1.186-1.189 1.596-2.188 1.597a4.2 4.2 0 01-.441-.025 19.45 19.45 0 00-2.07-.12c-1.564 0-2.92.24-4.14.736l-.177-.094c-.381-.206-.953-.515-1.711-.563a6.688 6.688 0 00-.42-.013c-1.856 0-3.328.794-4.257 2.296-.676 1.095-.866 2.286-.946 2.795l-.01.06-.005.03c-.083.42-.294 1.582.437 2.516.744.95 1.883.997 2.798 1.035l.2.008-1.587 2.717a2.634 2.634 0 002.266 3.97c.759 0 1.476-.327 1.975-.898l4.1-4.378c1.607-.33 3.1-.496 4.446-.496 1.167 0 2.442.127 3.795.378l4.196 4.495a2.62 2.62 0 003.305.536 2.644 2.644 0 00.938-3.607l-3.079-5.27c-.533-.947-.634-1.863-.57-2.499l.123.33c.504 1.365 1.076 2.912 2.662 2.912.981 0 1.834-.346 2.466-1 1.373-1.421 1.3-3.772 1.23-6.046-.025-.84-.069-2.235.09-2.62a1.686 1.686 0 00.056-1.738 1.666 1.666 0 00-1.554-.847 9.227 9.227 0 01-.571.017c-.578 0-1.212-.045-1.826-.09C30.241 9.054 29.498 9 28.763 9" fill="#48494D" opacity=".5"/></symbol><symbol id="star-icon"><path d="M8.631 0l1.88 5.873h6.08l-4.92 3.63 1.88 5.874-4.92-3.63-4.919 3.63 1.88-5.874-4.92-3.63h6.08L8.633 0z" fill="#BDBEC2" fill-opacity=".7"/></symbol><symbol id="transmission-icon"><g opacity=".5" stroke="#48494D" stroke-width="1.5"><path d="M11.194 20h17.612"/><path d="M11.194 20h17.612" stroke-miterlimit="10" stroke-linecap="round" stroke-linejoin="round"/><path d="M20 14.53v10.94"/><path d="M20 14.53v10.94" stroke-miterlimit="10" stroke-linecap="round" stroke-linejoin="round"/><path d="M28.806 14.53V20"/><path d="M28.806 14.53V20" stroke-miterlimit="10" stroke-linecap="round" stroke-linejoin="round"/><path d="M11.194 14.53v10.94"/><path d="M11.194 14.53v10.94m0-10.94a2.686 2.686 0 100-5.373 2.686 2.686 0 000 5.373zm8.806 0a2.686 2.686 0 100-5.373 2.686 2.686 0 000 5.373zm8.806 0a2.686 2.686 0 100-5.373 2.686 2.686 0 000 5.373zM11.194 30.843a2.686 2.686 0 100-5.373 2.686 2.686 0 000 5.373zm8.806 0a2.686 2.686 0 100-5.373 2.686 2.686 0 000 5.373z" stroke-miterlimit="10" stroke-linecap="round" stroke-linejoin="round"/></g></symbol><symbol id="volume-icon"><g opacity=".5" fill="#48494D"><path d="M34.087 17.312a.669.669 0 01-.475-.197l-6.801-6.8a.671.671 0 01.949-.95l6.8 6.801a.67.67 0 01-.473 1.146m-1.613 1.613a.669.669 0 01-.474-.197l-6.801-6.8a.67.67 0 11.949-.95l6.8 6.801a.67.67 0 01-.474 1.146m-1.545 1.545a.669.669 0 01-.475-.197l-6.8-6.8a.67.67 0 01.948-.949l6.801 6.8a.67.67 0 01-.474 1.146"/><path d="M22.547 18.256a.67.67 0 01-.474-1.145l2.877-2.878a.67.67 0 01.949.949L23.02 18.06a.668.668 0 01-.474.196m3.795 3.795a.67.67 0 01-.474-1.145l2.878-2.878a.671.671 0 01.949.95l-2.878 2.877a.667.667 0 01-.475.196m5.828-8.416a1.326 1.326 0 11-1.876-1.875 1.326 1.326 0 011.876 1.875zM5.913 17.304a.67.67 0 01-.474-1.145l6.8-6.8a.67.67 0 01.95.948l-6.802 6.8a.67.67 0 01-.474.197m1.613 1.613a.67.67 0 01-.474-1.145l6.8-6.8a.671.671 0 01.95.948L8 18.72a.669.669 0 01-.474.197m1.545 1.546a.67.67 0 01-.474-1.146l6.8-6.8a.67.67 0 11.95.948l-6.8 6.801a.671.671 0 01-.476.197"/><path d="M13.658 22.044a.67.67 0 01-.474-.197l-2.878-2.877a.67.67 0 11.949-.949l2.878 2.878a.67.67 0 01-.475 1.145m3.796-3.795a.669.669 0 01-.475-.197l-2.878-2.878a.67.67 0 11.95-.948l2.877 2.877a.67.67 0 01-.474 1.146m-7.746-6.498a1.326 1.326 0 11-1.876 1.876 1.326 1.326 0 011.876-1.876z"/><path d="M20.004 31.418a7.47 7.47 0 01-5.302-2.193c-2.923-2.923-2.923-7.68 0-10.604 2.924-2.924 7.68-2.924 10.604 0 2.924 2.924 2.924 7.68 0 10.604a7.475 7.475 0 01-5.302 2.193zm0-13.648c-1.577 0-3.153.6-4.353 1.8a6.163 6.163 0 000 8.707c2.4 2.4 6.306 2.4 8.707 0 2.4-2.4 2.4-6.306 0-8.707a6.138 6.138 0 00-4.354-1.8zm4.827 10.981h.002-.002z"/><path d="M12.09 26.542h-1.27c-.926 0-1.68-.753-1.68-1.68v-1.894c0-.927.754-1.68 1.68-1.68h1.27c.927 0 1.68.753 1.68 1.68v1.895c0 .926-.753 1.68-1.68 1.68zm-1.27-3.912a.342.342 0 00-.337.338v1.895c0 .183.154.337.337.337h1.27a.342.342 0 00.338-.337v-1.895a.342.342 0 00-.338-.338h-1.27z"/></g></symbol></svg>