<svg width="30" height="23" fill="none" xmlns="http://www.w3.org/2000/svg"><path d="M29.087 8.312a.669.669 0 01-.475-.197l-6.801-6.8a.671.671 0 01.949-.95l6.8 6.801a.67.67 0 01-.473 1.146m-1.613 1.613A.669.669 0 0127 9.728l-6.801-6.8a.67.67 0 11.949-.95l6.8 6.801a.67.67 0 01-.474 1.146m-1.545 1.545a.669.669 0 01-.475-.197l-6.8-6.8a.67.67 0 01.948-.949l6.801 6.8a.67.67 0 01-.474 1.146" fill="#48494D"/><path d="M17.547 9.256a.67.67 0 01-.474-1.145l2.877-2.878a.67.67 0 01.949.949L18.02 9.06a.668.668 0 01-.474.196m3.795 3.795a.67.67 0 01-.474-1.145l2.878-2.878a.671.671 0 01.949.95l-2.878 2.877a.667.667 0 01-.475.196m5.828-8.416a1.326 1.326 0 11-1.876-1.875 1.326 1.326 0 011.876 1.875zM.913 8.304A.67.67 0 01.439 7.16l6.8-6.8a.671.671 0 01.95.948l-6.802 6.8a.67.67 0 01-.474.197m1.613 1.612a.67.67 0 01-.474-1.145l6.8-6.8a.671.671 0 01.95.948L3 9.72a.669.669 0 01-.474.197m1.545 1.546a.67.67 0 01-.474-1.146l6.8-6.8a.67.67 0 11.95.948l-6.8 6.801a.671.671 0 01-.476.197" fill="#48494D"/><path d="M8.658 13.044a.67.67 0 01-.474-.197L5.306 9.97a.67.67 0 11.949-.949L9.133 11.9a.67.67 0 01-.475 1.145m3.796-3.796a.669.669 0 01-.475-.197L9.101 6.174a.67.67 0 11.95-.948l2.877 2.877a.67.67 0 01-.474 1.146M4.708 2.751a1.326 1.326 0 11-1.876 1.876 1.326 1.326 0 011.876-1.876z" fill="#48494D"/><path d="M15.004 22.418a7.47 7.47 0 01-5.302-2.193c-2.923-2.923-2.923-7.68 0-10.604 2.924-2.924 7.68-2.924 10.604 0 2.924 2.924 2.924 7.68 0 10.604a7.475 7.475 0 01-5.302 2.193zm0-13.648c-1.577 0-3.153.6-4.353 1.8a6.163 6.163 0 000 8.707c2.4 2.4 6.306 2.4 8.707 0 2.4-2.4 2.4-6.306 0-8.707a6.138 6.138 0 00-4.354-1.8zm4.827 10.981h.002-.002z" fill="#48494D"/><path d="M7.09 17.542H5.82c-.926 0-1.68-.753-1.68-1.68v-1.895c0-.926.754-1.679 1.68-1.679h1.27c.927 0 1.68.753 1.68 1.68v1.895c0 .926-.754 1.68-1.68 1.68zM5.82 13.63a.342.342 0 00-.337.337v1.896c0 .183.154.337.337.337h1.27a.342.342 0 00.338-.337v-1.896a.342.342 0 00-.338-.337H5.82z" fill="#48494D"/></svg>