<svg width="40" height="40" fill="none" xmlns="http://www.w3.org/2000/svg"><g opacity=".5" fill="#48494D"><path d="M34.087 17.312a.669.669 0 01-.475-.197l-6.801-6.8a.671.671 0 01.949-.95l6.8 6.801a.67.67 0 01-.473 1.146m-1.613 1.613a.669.669 0 01-.474-.197l-6.801-6.8a.67.67 0 11.949-.95l6.8 6.801a.67.67 0 01-.474 1.146m-1.545 1.545a.669.669 0 01-.475-.197l-6.8-6.8a.67.67 0 01.948-.949l6.801 6.8a.67.67 0 01-.474 1.146"/><path d="M22.547 18.256a.67.67 0 01-.474-1.145l2.877-2.878a.67.67 0 01.949.949L23.02 18.06a.668.668 0 01-.474.196m3.795 3.795a.67.67 0 01-.474-1.145l2.878-2.878a.671.671 0 01.949.95l-2.878 2.877a.667.667 0 01-.475.196m5.828-8.416a1.326 1.326 0 11-1.876-1.875 1.326 1.326 0 011.876 1.875zM5.913 17.304a.67.67 0 01-.474-1.145l6.8-6.8a.67.67 0 01.95.948l-6.802 6.8a.67.67 0 01-.474.197m1.613 1.613a.67.67 0 01-.474-1.145l6.8-6.8a.671.671 0 01.95.948L8 18.72a.669.669 0 01-.474.197m1.545 1.546a.67.67 0 01-.474-1.146l6.8-6.8a.67.67 0 11.95.948l-6.8 6.801a.671.671 0 01-.476.197"/><path d="M13.658 22.044a.67.67 0 01-.474-.197l-2.878-2.877a.67.67 0 11.949-.949l2.878 2.878a.67.67 0 01-.475 1.145m3.796-3.795a.669.669 0 01-.475-.197l-2.878-2.878a.67.67 0 11.95-.948l2.877 2.877a.67.67 0 01-.474 1.146m-7.746-6.498a1.326 1.326 0 11-1.876 1.876 1.326 1.326 0 011.876-1.876z"/><path d="M20.004 31.418a7.47 7.47 0 01-5.302-2.193c-2.923-2.923-2.923-7.68 0-10.604 2.924-2.924 7.68-2.924 10.604 0 2.924 2.924 2.924 7.68 0 10.604a7.475 7.475 0 01-5.302 2.193zm0-13.648c-1.577 0-3.153.6-4.353 1.8a6.163 6.163 0 000 8.707c2.4 2.4 6.306 2.4 8.707 0 2.4-2.4 2.4-6.306 0-8.707a6.138 6.138 0 00-4.354-1.8zm4.827 10.981h.002-.002z"/><path d="M12.09 26.542h-1.27c-.926 0-1.68-.753-1.68-1.68v-1.894c0-.927.754-1.68 1.68-1.68h1.27c.927 0 1.68.753 1.68 1.68v1.895c0 .926-.753 1.68-1.68 1.68zm-1.27-3.912a.342.342 0 00-.337.338v1.895c0 .183.154.337.337.337h1.27a.342.342 0 00.338-.337v-1.895a.342.342 0 00-.338-.338h-1.27z"/></g></svg>