<svg width="53" height="40" fill="none" xmlns="http://www.w3.org/2000/svg"><g opacity=".5"><rect x="16.746" y="10.75" width="10.95" height="19.913" rx="1.25" stroke="#48494D" stroke-width="1.5"/><mask id="a" fill="#fff"><rect x="18.097" y="13.097" width="8.258" height="7.226" rx="1"/></mask><rect x="18.097" y="13.097" width="8.258" height="7.226" rx="1" stroke="#48494D" stroke-width="3" mask="url(#a)"/><path d="M27.947 20.834v0c1.184 0 2.143.96 2.143 2.142v2.664c0 1.345.535 3.49 2.499 3.267 1.964-.222 2.32-2.225 2.32-3.652s-.713-4.613-.535-7.304c.179-2.691 1.785-4.998 3.035-5.96" stroke="#48494D" stroke-width="1.5" stroke-linecap="round" stroke-linejoin="round"/><rect x="15.498" y="30.506" width="13.445" height=".996" rx=".498" fill="#48494D" stroke="#48494D" stroke-width=".996"/><path d="M35.418 15.478v0a1.893 1.893 0 011.435 2.022l-.085.874a1.756 1.756 0 01-1.748 1.586v0" stroke="#48494D" stroke-width="1.5"/></g></svg>