<svg width="34" height="42" fill="none" xmlns="http://www.w3.org/2000/svg"><path d="M28.314 29.284L17 41 5.686 29.284a16.759 16.759 0 01-4.379-8.483 17.12 17.12 0 01.911-9.573C3.429 8.201 5.48 5.613 8.11 3.792A15.612 15.612 0 0117 1c3.165 0 6.258.972 8.89 2.792 2.63 1.82 4.681 4.409 5.892 7.436a17.117 17.117 0 01.91 9.573 16.76 16.76 0 01-4.378 8.483zM17 21.25c.943 0 1.847-.388 2.514-1.078a3.75 3.75 0 001.041-2.604 3.75 3.75 0 00-1.04-2.603A3.495 3.495 0 0017 13.886c-.943 0-1.847.388-2.514 1.079a3.75 3.75 0 00-1.042 2.603 3.75 3.75 0 001.042 2.604A3.494 3.494 0 0017 21.25z" fill="#D12136" stroke="#F6F7FF" stroke-width=".5"/></svg>