<svg width="26" height="24" fill="none" xmlns="http://www.w3.org/2000/svg"><path d="M4.194 12h17.612" stroke="#48494D" stroke-width="1.5"/><path d="M4.194 12h17.612" stroke="#48494D" stroke-width="1.5" stroke-miterlimit="10" stroke-linecap="round" stroke-linejoin="round"/><path d="M13 6.53v10.94" stroke="#48494D" stroke-width="1.5"/><path d="M13 6.53v10.94" stroke="#48494D" stroke-width="1.5" stroke-miterlimit="10" stroke-linecap="round" stroke-linejoin="round"/><path d="M21.806 6.53V12" stroke="#48494D" stroke-width="1.5"/><path d="M21.806 6.53V12" stroke="#48494D" stroke-width="1.5" stroke-miterlimit="10" stroke-linecap="round" stroke-linejoin="round"/><path d="M4.194 6.53v10.94" stroke="#48494D" stroke-width="1.5"/><path d="M4.194 6.53v10.94m0-10.94a2.686 2.686 0 100-5.373 2.686 2.686 0 000 5.372zm8.806 0a2.686 2.686 0 100-5.373 2.686 2.686 0 000 5.372zm8.806 0a2.686 2.686 0 100-5.373 2.686 2.686 0 000 5.372zM4.194 22.843a2.686 2.686 0 100-5.373 2.686 2.686 0 000 5.373zm8.806 0a2.686 2.686 0 100-5.373 2.686 2.686 0 000 5.373z" stroke="#48494D" stroke-width="1.5" stroke-miterlimit="10" stroke-linecap="round" stroke-linejoin="round"/></svg>